<svg width="40" height="40" viewBox="0 0 40 40" fill="none" xmlns="http://www.w3.org/2000/svg">
<g id="mdi:tools">
<path id="Vector" d="M36.1833 33.8166L33.8167 36.1833C33.5044 36.4937 33.082 36.6679 32.6417 36.6679C32.2014 36.6679 31.779 36.4937 31.4667 36.1833L11.6667 16.4166C11.1247 16.5736 10.5642 16.6577 10 16.6666C8.93886 16.6658 7.89321 16.4118 6.95 15.9255C6.0068 15.4393 5.19329 14.7349 4.57712 13.871C3.96095 13.007 3.55992 12.0085 3.40736 10.9583C3.25481 9.90819 3.35514 8.83681 3.70002 7.83325L7.93335 12.0666L8.81669 11.1833L11.1834 8.81659L12.0667 7.93325L7.83335 3.69992C8.83691 3.35504 9.90829 3.25471 10.9584 3.40726C12.0086 3.55982 13.0071 3.96085 13.8711 4.57702C14.735 5.19319 15.4394 6.0067 15.9256 6.9499C16.4119 7.89311 16.6659 8.93876 16.6667 9.99992C16.6578 10.5641 16.5737 11.1246 16.4167 11.6666L36.1833 31.4666C36.4938 31.7789 36.668 32.2013 36.668 32.6416C36.668 33.0819 36.4938 33.5043 36.1833 33.8166ZM3.81669 31.4666C3.50627 31.7789 3.33203 32.2013 3.33203 32.6416C3.33203 33.0819 3.50627 33.5043 3.81669 33.8166L6.18335 36.1833C6.49562 36.4937 6.91804 36.6679 7.35835 36.6679C7.79866 36.6679 8.22108 36.4937 8.53335 36.1833L17.65 27.0833L12.9334 22.3666M33.3334 3.33325L26.6667 6.66659V9.99992L23.05 13.6166L26.3834 16.9499L30 13.3333H33.3334L36.6667 6.66659L33.3334 3.33325Z" fill="#163750"/>
</g>
</svg>
