<svg width="150" height="150" viewBox="0 0 150 150" fill="none" xmlns="http://www.w3.org/2000/svg">
<g id="LOGO/Starbucks" clip-path="url(#clip0_38_1646)">
<g id="XMLID_25_">
<path id="XMLID_27_" d="M149.616 75C149.616 116.402 116.188 150 75 150C33.8115 150 0.383789 116.402 0.383789 75C0.383789 33.5977 33.8115 0 75 0C116.229 0 149.616 33.5977 149.616 75Z" fill="white"/>
<path id="XMLID_42_" d="M74.3613 26.6484C77.0039 28.1836 79.7754 30.1025 81.9082 32.1914L81.0557 33.0439C76.8779 32.6162 72.4424 33.1729 68.4785 33.2139C68.0508 32.7861 67.1572 32.1064 67.9658 31.5498L74.3613 26.6484ZM148.38 78.668C148.424 80.543 148.594 82.1631 147.867 84.126C143.859 85.2773 140.575 83.5723 137.294 81.9082C134.309 80.373 131.323 78.8379 127.787 79.4356L128.64 83.6133C135.504 83.8271 139.811 90.4365 146.889 90.1377C145.866 92.1416 147.357 97.4707 142.881 95.3408C138.234 94.2334 134.906 90.1377 129.835 90.1377C129.237 91.2451 129.621 92.8242 129.495 94.1455C134.868 94.998 138.706 99.5186 144.076 100.327C143.563 102.161 143.054 104.206 141.56 105.357C137.212 104.291 133.799 100.368 129.152 100.497L128.341 104.335C132.732 104.464 135.589 108.343 139.556 109.538C139.685 111.158 138.19 112.608 137.382 114.059C133.887 112.992 131.2 109.966 127.148 110.221C127.104 108.729 128.001 106.98 127.661 105.36C123.141 106.682 120.114 102.504 116.789 99.9873C116.704 91.7578 108.047 86.3438 107.578 78.668C107.493 77.1328 107.707 75.4688 108.431 73.7227C111.287 67.1572 110.391 58.585 107.279 52.4473C106.342 50.8271 104.637 49.5469 103.102 48.6094C105.404 53.4697 108.176 59.2266 106.811 65.1943C106.641 69.7998 103.91 74.2324 103.91 78.668C103.91 80.2441 104.25 81.8232 105.146 83.4434C108.771 89.9678 115.295 96.1494 112.863 104.379C112.181 106.896 110.177 108.855 109.664 111.413C113.927 114.908 117.935 118.875 123.565 119.13C125.569 117.85 124.462 112.181 128.596 114.782L134.607 117.809C134.18 119.429 132.817 120.879 131.581 121.986C129.278 120.879 127.061 119.555 124.204 119.643C123.352 120.539 122.628 121.518 122.713 122.798C124.717 123.138 126.551 123.993 128.256 125.142C127.488 126.806 125.953 127.869 124.547 129.149L119.856 127.485C119.089 128.593 117.469 129.788 118.022 131.024C119.089 131.493 120.24 132.091 121.008 132.858C118.96 135.076 116.317 136.526 113.801 138.062C111.627 130.983 104.464 125.994 105.103 117.809L104.763 117.469C103.099 119.344 103.655 122.373 103.74 124.846C105.744 129.961 110.563 133.928 111.287 139.6C110.435 141.05 108.56 141.349 107.109 141.943C107.279 131.795 91.8867 124.078 101.736 113.804C105.021 108.773 110.563 103.954 108.601 97.0459C106.597 90.3516 99.4775 86.2149 99.5625 78.7119V78.1143C101.183 70.3125 106.087 61.998 102.079 53.6836C100.972 50.3584 98.4551 46.5205 95.0449 45.1553C100.119 50.9531 102.123 60.4629 99.2227 68.2646C97.7725 71.376 95.7275 75.0879 95.5547 78.7529C95.4258 80.6719 95.8535 82.5469 97.0459 84.3809C100.884 90.6475 107.578 97.5146 103.74 105.656C99.3926 112.181 91.8018 118.831 96.0234 127.4C99.0938 132.516 103.825 137.675 102.548 143.985L97.5176 145.649C100.887 133.881 84.4717 126.973 91.3359 115.163C95.5576 108.853 103.146 102.926 98.8828 94.5703C96.3252 89.3672 90.9961 86.2998 91.166 79.8164L91.3359 78.709C93.085 69.498 100.034 60.7998 95.1738 50.9941C93.8935 48.0938 91.3359 45.1523 88.4795 43.4473L88.3096 43.6172C94.0225 49.1602 95.7275 58.2422 92.6572 65.5342C91.207 69.8408 88.0957 74.1035 87.4541 78.668C87.1553 80.8418 87.4102 83.0596 88.6494 85.4473C92.2734 91.2041 98.6279 97.3008 94.6611 104.719C90.4834 110.859 83.4902 116.827 86.3027 124.802C89.373 131.795 95.7686 138.445 92.3145 147.103L87.1113 148.254C91.248 139.811 85.0635 131.455 81.4395 124.122C77.0479 113.634 90.9053 108.601 91.1602 99.0088C91.1162 92.8271 84.5098 89.2881 83.1445 83.6162C81.4395 82.21 79.7344 82.8047 77.9004 83.4023C76.6201 83.8301 75.2988 84.2139 73.9365 83.9561C73.04 84.126 72.0176 83.7422 70.9512 83.4023C68.9912 82.7197 67.0283 82.0371 66.0469 84.8086C64.2568 91.1191 56.1123 95.7656 59.6924 103.228C63.1025 109.878 71.291 114.741 68.5605 123.311C66.1289 131.326 58.0283 139.002 63.0176 148.254C60.9697 147.571 57.0908 148.852 57.1758 145.567C53.9766 134.353 67.5381 127.831 63.3574 116.616C61.3975 109.752 52.5264 105.958 54.4893 97.6846C55.9395 90.9053 63.5713 86.1299 62.5049 78.668C62.4199 78.0293 62.25 77.3877 62.0361 76.749C59.1797 68.7334 53.3818 60.6738 56.833 51.293C57.7705 48.6064 59.6895 46.3477 61.3535 43.916C55.8105 46.8574 53.0391 53.127 53.168 59.4785C52.9131 66.3867 58.0283 72.3135 58.7549 78.665C59.0537 81.2227 58.626 83.8242 56.8359 86.5957C53.2119 91.5 48.4775 96.7002 50.6543 103.181C52.7021 109.705 60.8877 113.669 60.375 121.26C60.3311 130.257 49.8867 135.841 52.8281 145.863L47.625 144.158C45.5771 135.246 55.043 130.685 55.1719 122.414C56.4932 112.907 44.3848 109.409 45.1084 100.113C45.0645 93.0791 51.249 88.6436 53.9766 82.7168C54.4453 81.2666 54.6152 79.9014 54.5303 78.624C54.1904 72.0996 48.3047 66.9844 49.2861 59.6074C49.626 54.1934 51.46 49.459 54.958 45.3662C50.0977 47.3262 48.0938 52.9131 46.7725 57.6035C44.4287 65.1064 50.0127 71.8857 50.5664 78.624C50.8213 81.6094 50.0977 84.5508 47.2822 87.5771C43.2744 92.3086 39.1816 98.2793 42.0791 104.675C45.1494 111.709 54.8291 117.167 50.6074 125.95C48.3047 131.493 42.8467 135.671 43.0605 142.195C41.6104 141.598 40.1191 140.959 38.8828 139.852C38.8828 131.537 50.6924 126.334 45.0645 117.595C44.5518 119.344 44.4668 121.688 44.083 123.606C42.123 128.681 37.9424 132.773 36.3662 138.018C33.7646 136.995 30.9932 134.906 28.8193 132.645L31.8457 130.811C31.5059 129.703 30.6094 128.763 29.8418 127.784C27.8818 127.529 26.6016 128.807 24.9814 129.275C23.5752 128.039 22.2539 126.932 21.1436 125.438C22.125 122.581 29.9707 124.925 26.0039 120.234C23.3174 118.57 20.6309 120.958 18.2871 122.068L15.0879 118.061C17.8154 116.396 20.5459 114.053 23.9561 114.691C24.8086 116.183 24.8525 118.4 26.4727 119.212C32.2295 119.083 36.2783 114.735 40.7139 111.366C37.6436 106.805 35.127 100.494 37.8574 94.9512C40.0312 89.4082 45.7441 84.7617 46.002 78.6211C46.0459 77.2148 45.832 75.7646 45.2344 74.1855C42.208 66.4248 41.1416 55.9365 46.8984 49.0723C43.7871 49.9248 41.9092 53.8037 40.8867 56.748C37.4326 64.3389 41.7832 71.3291 41.9531 78.6211C41.9531 79.9424 41.8682 81.2227 41.5693 82.5439C38.6279 88.5146 33.8086 93.7588 33.041 100.623C29.6309 102.797 26.8594 106.594 21.999 105.313C21.8291 106.594 22.2129 108.554 22.6816 110.004C18.8438 109.834 16.2012 112.69 12.9609 114.012C11.2559 113.458 10.7871 111.24 10.1045 109.664C13.8984 108.384 16.6289 104.59 20.9766 104.634C21.4893 103.228 20.6777 101.947 20.4639 100.626C18.375 99.6885 15.8174 101.265 13.4297 102.8C9.5918 105.272 6.18164 107.745 5.75391 100.113C11.168 99.7734 14.6221 94.7402 19.9951 94.2715L20.165 90.2637C17.1387 89.9648 14.6221 91.3711 12.1055 92.7803C9.58887 94.1895 7.11621 95.5957 4.0459 95.2969L2.72461 89.9238C9.75879 90.3516 13.9395 84.041 20.6338 83.7422C21.5303 82.5908 21.6152 80.8418 21.7852 79.2217C18.416 78.7939 15.5186 80.2881 12.6182 81.7793C9.24902 83.5283 5.88281 85.2334 1.70215 83.9121C1.70215 83.9121 1.44727 80.543 1.27441 78.624C1.23633 77.9004 1.19531 77.3438 1.19531 77.3438C8.10352 80.0303 14.2002 75.041 20.127 72.4834C21.6182 72.0146 23.9648 72.8232 24.6475 71.1621C24.6035 69.8818 26.9502 68.3906 24.9873 67.4941C21.2344 66.9814 18.0381 68.6455 14.8828 70.3096C10.7461 72.4834 6.73828 74.7012 1.70801 71.9736L1.02539 70.6523C2.85645 45.4102 17.0977 21.0645 40.6758 9.03809C50.2705 3.62402 62.165 0.85254 74.1475 0.723634C88.6025 0.594728 103.228 4.3916 114.056 12.0645C124.588 18.5449 134.692 29.2061 140.191 40.0342C145.436 49.5 147.823 60.1582 148.55 71.502C143.476 75.3398 139.339 72.9082 135.076 70.5205C131.622 68.6016 128.083 66.6416 123.946 68.0039C124.459 69.4541 124.714 70.9453 125.78 72.1816C129.234 72.1377 132.261 73.6729 135.202 75.167C139.295 77.2559 143.347 79.3447 148.377 77.3408L148.38 78.668ZM43.2334 47.584C37.4355 43.79 30.0586 47.3701 24.6445 49.418C24.1318 44.3437 22.0869 39.6973 17.7803 36.3721C17.3525 36.1582 16.7988 35.7334 16.2451 35.6895C15.9463 35.6895 15.6475 35.7744 15.3926 36.2021C17.3525 48.1846 9.55078 56.584 4.00781 65.666C5.8418 67.1572 8.7832 66.9463 11.042 66.5186C16.8838 64.1748 22.4678 60.0791 29.4609 61.4883C31.5088 57.9932 35.0039 54.5801 37.8193 51.7676C39.6094 50.2705 41.9971 49.333 43.2334 47.584ZM60.9727 55.1309C60.8438 55.8545 61.0166 57.1348 62.124 56.6221C63.873 54.2344 66.9434 56.1094 68.8184 56.2822V55.5996C67.7959 53.9795 65.6191 53.127 63.4453 53.2119C62.9326 53.2119 62.4229 53.2969 61.9541 53.4258C61.2715 53.6396 60.7588 54.2783 60.9727 55.1309ZM88.2598 47.9238C86.6836 44.4697 83.1445 43.0635 79.9014 42.2109C78.3252 41.9971 76.6611 41.8711 75.041 41.8711C74.7422 41.8711 74.4434 41.8711 74.1035 41.8711C69.542 41.9561 65.1504 43.1514 62.5049 46.9014C62.1211 47.9678 60.416 49.459 61.9922 50.3965C65.4873 50.1826 69.5391 49.7139 71.8828 52.7402C71.8828 55.4268 73.6318 59.0068 70.7314 60.2871C69.4951 59.1357 68.0889 59.4346 66.7236 59.7334C65.4434 60.0322 64.1221 60.2871 62.8857 59.4346C61.6494 58.7109 60.8818 59.5635 60.3691 60.6299C59.6455 67.5381 63.2695 75.1699 69.75 79.0488C72.3926 79.9863 75.8906 80.8828 78.6182 79.5615C85.1836 76.4912 87.9141 69.457 89.1504 62.9766C88.9805 61.7402 89.0654 59.3525 87.3164 59.2676C85.3564 60.5039 82.4971 59.7803 80.4521 59.2676C79.2158 59.6514 79.1719 61.4414 77.7656 61.7842L76.9131 61.1016C76.1895 58.0312 75.7178 53.6836 78.5771 51.5508C81.7764 50.2705 85.4854 49.7168 88.8106 50.6982C89.3701 49.7168 88.4297 48.9053 88.2598 47.9238ZM84.8906 53.4258C84.6768 53.4258 84.4629 53.4258 84.2519 53.4697C83.1006 54.2373 79.6904 53.6836 80.8828 56.3262C83.0156 54.6621 85.957 55.8135 88.0898 56.666C88.8574 56.2822 88.6875 55.5146 88.7725 54.832C88.0898 53.5107 86.4697 53.4258 84.8906 53.4258ZM109.195 29.8477C105.059 29.6338 101.604 31.9805 97.8105 33.0469C97.4707 29.8066 99.9434 26.3965 100.497 23.1563C94.3564 23.54 89.4961 27.249 84.4219 30.1904C83.2266 27.334 82.0781 24.4775 80.8828 21.6621L87.5771 15.3076L87.7471 14.4551L78.709 13.9424C77.1328 11.2148 76.5352 7.93067 74.7012 5.41406C73.21 8.27051 72.1846 11.2559 70.6934 14.1123L61.6553 14.625V15.3076L68.5195 21.4893C67.667 24.6885 66.8994 28.1397 64.8516 30.5273C60.8438 28.1397 56.877 25.4971 52.4854 23.833C51.4189 23.4932 49.9277 22.9365 48.9463 23.6631C50.3525 26.7334 52.2715 30.0176 51.9727 33.3838C50.1387 33.0439 48.6885 31.8486 46.9424 31.3799C44.8535 30.8262 42.4219 29.7158 40.418 30.3984C43.7871 35.0889 46.5146 39.9932 47.4521 45.6211C58.582 40.248 71.499 37.3066 84.9727 39.6094C91.2832 40.6318 97.0811 43.1924 102.709 45.2812C102.885 39.3545 106.638 34.5791 109.195 29.8477ZM128.297 61.9951C133.969 63.4863 139.682 69.7119 145.693 65.6631C140.449 56.9648 132.647 48.9053 134.821 37.5234C135.035 36.7559 134.566 35.9473 133.84 35.8594C130.43 37.2656 127.784 40.5908 126.463 43.9189C125.909 45.8789 125.566 47.9268 124.799 49.7607C120.706 47.6279 116.355 45.583 111.41 46.0928C109.62 46.3066 107.062 46.4326 106.72 48.2666C112.348 51.293 116.994 56.3262 120.448 61.6553C122.839 61.2715 125.78 61.6113 128.297 61.9951ZM68.6895 69.8408L68.8594 70.8633C71.0332 72.3135 71.7158 74.7861 74.7422 74.5723C77.4287 74.7422 79.4326 72.2285 80.7539 70.2246C79.0049 69.9697 77.1299 70.0547 75.167 70.0957C72.9961 70.1396 70.7783 70.1807 68.6895 69.8408ZM71.7158 65.3643C71.8447 65.792 71.4609 66.4717 72.0557 66.6855C72.6533 66.5566 73.4209 66.6006 74.1885 66.6855C75.7646 66.8145 77.4287 66.9404 78.0674 65.5342C77.3848 64.7666 76.2334 64.3828 75.041 64.3828C73.8486 64.3828 72.6123 64.7256 71.7158 65.3643Z" fill="#007042"/>
<path id="XMLID_48_" d="M72.0146 66.6855C71.417 66.4717 71.8008 65.7891 71.6748 65.3643C72.5713 64.7666 73.8076 64.3828 75 64.3828C76.1924 64.3828 77.3437 64.7227 78.0264 65.5342C77.5576 66.5566 76.5762 66.7705 75.4688 66.7705C75.041 66.7705 74.5723 66.7266 74.1475 66.6855C73.7197 66.6416 73.251 66.6006 72.8672 66.6006C72.5684 66.6006 72.2725 66.6416 72.0146 66.6855ZM80.9268 63.4014H68.6895V68.4316H80.9268V63.4014Z" fill="white"/>
<path id="XMLID_49_" d="M75.0439 64.3828C73.8486 64.3828 72.6123 64.7227 71.7188 65.3643C71.8477 65.792 71.4639 66.4717 72.0586 66.6855C72.3135 66.6416 72.6123 66.6006 72.9111 66.6006C73.2949 66.6006 73.7637 66.6445 74.1914 66.6855C74.6191 66.7295 75.0879 66.7705 75.5127 66.7705C76.6201 66.7705 77.6016 66.5566 78.0703 65.5342C77.3438 64.7256 76.2363 64.3828 75.0439 64.3828Z" fill="#FCFDFD"/>
<path id="XMLID_50_" d="M70.9482 66.0879C72.5244 66.4717 72.9082 67.0254 74.1884 67.1953C75.5097 67.1514 75.3398 66.8965 77.6425 66.0879C77.8125 66.0439 77.9824 65.7041 77.7275 65.4492C76.2773 64.043 75.2959 65.0215 74.4023 65.0654C73.207 65.0654 72.0996 64.043 70.9072 65.4053C70.6933 65.6631 70.6084 65.918 70.9482 66.0879Z" fill="#007042"/>
<path id="XMLID_51_" d="M128.766 148.594V141.431H126.208V139.98H133.031V141.431H130.515V148.594H128.766Z" fill="#007042"/>
<path id="XMLID_56_" d="M134.139 148.594V139.98H136.74L138.316 145.822L139.852 139.98H142.497V148.594H140.877V141.814L139.169 148.594H137.464L135.759 141.814V148.594H134.139Z" fill="#007042"/>
</g>
</g>
<defs>
<clipPath id="clip0_38_1646">
<rect width="150" height="150" fill="white"/>
</clipPath>
</defs>
</svg>
