<svg width="51" height="50" viewBox="0 0 51 50" fill="none" xmlns="http://www.w3.org/2000/svg">
<g id="LOGO/AdobeXD" clip-path="url(#clip0_39_1861)">
<path id="Vector" d="M9.35417 0.00500488H41.6458C46.5417 0.00500488 50.5 4.064 50.5 9.08434V40.9154C50.5 45.9358 46.5417 49.9948 41.6458 49.9948H9.35417C4.45833 49.9948 0.5 45.9358 0.5 40.9154V9.08434C0.5 4.064 4.45833 0.00500488 9.35417 0.00500488Z" fill="#470137"/>
<g id="Group">
<path id="Vector_2" d="M26.7916 13.1434L20.5416 23.7182L27.2083 34.9338C27.25 35.0193 27.2708 35.1047 27.25 35.1902C27.2291 35.2756 27.1458 35.2115 27.0208 35.2329H22.25C21.9166 35.2329 21.6875 35.2115 21.5416 34.9979C21.1041 34.1007 20.6458 33.2248 20.2083 32.3275C19.7708 31.4516 19.2916 30.5544 18.7916 29.6358C18.2916 28.7171 17.7916 27.7985 17.2916 26.8586H17.25C16.8125 27.7772 16.3333 28.6958 15.8541 29.6144C15.375 30.533 14.8958 31.4516 14.4375 32.3489C13.9583 33.2461 13.4791 34.1647 13 35.0406C12.9166 35.2543 12.75 35.2756 12.5208 35.2756H7.93745C7.85412 35.2756 7.79162 35.3184 7.79162 35.2115C7.77079 35.1261 7.79162 35.0406 7.83329 34.9765L14.3125 24.0813L7.99995 13.1221C7.93745 13.0366 7.91662 12.9512 7.95829 12.9084C7.99995 12.8443 8.08329 12.823 8.16662 12.823H12.8958C13 12.823 13.1041 12.8443 13.1875 12.8657C13.2708 12.9084 13.3333 12.9725 13.3958 13.058C13.7916 13.9766 14.25 14.8952 14.7291 15.8138C15.2291 16.7324 15.7083 17.6297 16.2291 18.5269C16.7291 19.4242 17.1875 20.3214 17.625 21.2401H17.6666C18.1041 20.3001 18.5625 19.3815 19.0208 18.4842C19.4791 17.587 19.9583 16.6897 20.4375 15.7924C20.9166 14.8952 21.375 13.9766 21.8333 13.1007C21.8541 13.0152 21.8958 12.9298 21.9583 12.8871C22.0416 12.8443 22.125 12.823 22.2291 12.8443H26.625C26.7291 12.823 26.8333 12.8871 26.8541 12.9939C26.875 13.0152 26.8333 13.1007 26.7916 13.1434ZM36.4166 35.6815C34.875 35.7029 33.3333 35.3824 31.9375 34.7202C30.625 34.1007 29.5416 33.0752 28.7916 31.8148C28.0208 30.5117 27.6458 28.8881 27.6458 26.944C27.625 25.3631 28.0208 23.8036 28.7916 22.4364C29.5833 21.0478 30.7291 19.8942 32.1041 19.1251C33.5625 18.2919 35.3125 17.886 37.375 17.886C37.4791 17.886 37.625 17.886 37.8125 17.9074C38 17.9288 38.2083 17.9288 38.4583 17.9501V11.1994C38.4583 11.0498 38.5208 10.9644 38.6666 10.9644H42.8958C43 10.943 43.0833 11.0285 43.1041 11.1139V31.4944C43.1041 31.8789 43.125 32.3062 43.1458 32.7761C43.1875 33.2248 43.2083 33.652 43.2291 34.0152C43.2291 34.1647 43.1666 34.2929 43.0208 34.357C41.9375 34.827 40.7916 35.1688 39.625 35.3825C38.5625 35.5747 37.5 35.6815 36.4166 35.6815ZM38.4583 31.4089V22.0091C38.2708 21.9664 38.0833 21.9237 37.8958 21.9023C37.6666 21.8809 37.4375 21.8596 37.2083 21.8596C36.3958 21.8596 35.5833 22.0305 34.8541 22.415C34.1458 22.7782 33.5416 23.3123 33.0833 23.9959C32.625 24.6795 32.3958 25.5981 32.3958 26.709C32.375 27.4567 32.5 28.2044 32.75 28.9094C32.9583 29.4862 33.2708 29.9989 33.6875 30.4262C34.0833 30.8107 34.5625 31.1098 35.1041 31.2807C35.6666 31.473 36.25 31.5584 36.8333 31.5584C37.1458 31.5584 37.4375 31.5371 37.7083 31.5157C37.9791 31.5371 38.2083 31.4944 38.4583 31.4089Z" fill="#FF61F6"/>
</g>
</g>
<defs>
<clipPath id="clip0_39_1861">
<rect width="50" height="50" fill="white" transform="translate(0.5)"/>
</clipPath>
</defs>
</svg>
