<svg width="50" height="50" viewBox="0 0 50 50" fill="none" xmlns="http://www.w3.org/2000/svg">
<g id="LOGO/Photoshop" clip-path="url(#clip0_39_1864)">
<path id="Vector" d="M8.85417 0.00500488H41.1458C46.0417 0.00500488 50 4.064 50 9.08434V40.9154C50 45.9358 46.0417 49.9948 41.1458 49.9948H8.85417C3.95833 49.9948 0 45.9358 0 40.9154V9.08434C0 4.064 3.95833 0.00500488 8.85417 0.00500488Z" fill="#001E36"/>
<g id="Group">
<path id="Vector_2" d="M11.25 35.062V13.0794C11.25 12.9298 11.3125 12.8444 11.4583 12.8444C11.8125 12.8444 12.1458 12.8444 12.625 12.823C13.125 12.8016 13.6458 12.8016 14.2083 12.7803C14.7708 12.7589 15.375 12.7589 16.0208 12.7375C16.6667 12.7162 17.2917 12.7162 17.9167 12.7162C19.625 12.7162 21.0417 12.9298 22.2083 13.3784C23.25 13.7416 24.2083 14.3398 25 15.1302C25.6667 15.8138 26.1875 16.647 26.5208 17.5656C26.8333 18.4629 27 19.3815 27 20.3428C27 22.1801 26.5833 23.6968 25.75 24.8932C24.9167 26.0895 23.75 26.9868 22.3958 27.4995C20.9792 28.0336 19.4167 28.2258 17.7083 28.2258C17.2083 28.2258 16.875 28.2258 16.6667 28.2045C16.4583 28.1831 16.1667 28.1831 15.7708 28.1831V35.0407C15.7917 35.1902 15.6875 35.3184 15.5417 35.3397H11.5C11.3333 35.3397 11.25 35.2543 11.25 35.062ZM15.7917 16.9675V24.1455C16.0833 24.1668 16.3542 24.1882 16.6042 24.1882H17.7083C18.5208 24.1882 19.3333 24.06 20.1042 23.8037C20.7708 23.6114 21.3542 23.2055 21.8125 22.6714C22.25 22.1373 22.4583 21.411 22.4583 20.471C22.4792 19.8087 22.3125 19.1465 21.9792 18.5697C21.625 18.0142 21.125 17.587 20.5208 17.352C19.75 17.0315 18.9167 16.9034 18.0625 16.9247C17.5208 16.9247 17.0417 16.9247 16.6458 16.9461C16.2292 16.9247 15.9375 16.9461 15.7917 16.9675ZM40 22.8423C39.375 22.5005 38.7083 22.2655 38 22.116C37.2292 21.9451 36.4583 21.8382 35.6667 21.8382C35.25 21.8169 34.8125 21.881 34.4167 21.9878C34.1458 22.0519 33.9167 22.2014 33.7708 22.4151C33.6667 22.586 33.6042 22.7996 33.6042 22.9919C33.6042 23.1841 33.6875 23.3764 33.8125 23.5473C34 23.7823 34.25 23.9746 34.5208 24.1241C35 24.3805 35.5 24.6155 36 24.8291C37.125 25.2136 38.2083 25.7477 39.2083 26.3886C39.8958 26.8372 40.4583 27.4354 40.8542 28.1617C41.1875 28.8454 41.3542 29.5931 41.3333 30.3621C41.3542 31.3662 41.0625 32.3703 40.5208 33.2034C39.9375 34.058 39.125 34.7202 38.1875 35.1048C37.1667 35.5534 35.9167 35.7884 34.4167 35.7884C33.4583 35.7884 32.5208 35.7029 31.5833 35.5107C30.8542 35.3825 30.125 35.1475 29.4583 34.827C29.3125 34.7416 29.2083 34.592 29.2292 34.4211V30.7039C29.2292 30.6399 29.25 30.5544 29.3125 30.5117C29.375 30.469 29.4375 30.4903 29.5 30.533C30.3125 31.0244 31.1667 31.3662 32.0833 31.5798C32.875 31.7935 33.7083 31.9003 34.5417 31.9003C35.3333 31.9003 35.8958 31.7935 36.2708 31.6012C36.6042 31.4517 36.8333 31.0885 36.8333 30.7039C36.8333 30.4049 36.6667 30.1271 36.3333 29.8494C36 29.5717 35.3125 29.2513 34.2917 28.8454C33.2292 28.4608 32.25 27.9481 31.3333 27.3072C30.6875 26.8372 30.1458 26.2177 29.75 25.4913C29.4167 24.8077 29.25 24.06 29.2708 23.3123C29.2708 22.3937 29.5208 21.5178 29.9792 20.7274C30.5 19.8728 31.2708 19.1892 32.1667 18.762C33.1458 18.2492 34.375 18.0142 35.8542 18.0142C36.7083 18.0142 37.5833 18.0783 38.4375 18.2065C39.0625 18.292 39.6667 18.4629 40.2292 18.6979C40.3125 18.7192 40.3958 18.8047 40.4375 18.8901C40.4583 18.9756 40.4792 19.061 40.4792 19.1465V22.6287C40.4792 22.7141 40.4375 22.7996 40.375 22.8423C40.1875 22.885 40.0833 22.885 40 22.8423Z" fill="#31A8FF"/>
</g>
</g>
<defs>
<clipPath id="clip0_39_1864">
<rect width="50" height="50" fill="white"/>
</clipPath>
</defs>
</svg>
